<svg xmlns="http://www.w3.org/2000/svg" width="1024" height="1024" viewBox="200 140 624 760">
  <defs>
    <radialGradient id="bgGlow" cx="0.5" cy="0.6" r="0.5">
      <stop offset="0%" stop-color="#D4A017" stop-opacity="0.15"/>
      <stop offset="100%" stop-color="#0B0B0D" stop-opacity="0"/>
    </radialGradient>

    <linearGradient id="bronzeBody" x1="0" y1="0" x2="1" y2="0">
      <stop offset="0%" stop-color="#2B1D0A"/>
      <stop offset="8%" stop-color="#7A5618"/>
      <stop offset="20%" stop-color="#FFDF6A"/>
      <stop offset="35%" stop-color="#D4A017"/>
      <stop offset="50%" stop-color="#FFF4B0"/>
      <stop offset="65%" stop-color="#D4A017"/>
      <stop offset="85%" stop-color="#FFDF6A"/>
      <stop offset="95%" stop-color="#5E4210"/>
      <stop offset="100%" stop-color="#1A1105"/>
    </linearGradient>

    <linearGradient id="woodBeam" x1="0" y1="0" x2="0" y2="1">
      <stop offset="0%" stop-color="#4A301A"/>
      <stop offset="20%" stop-color="#3A2210"/>
      <stop offset="80%" stop-color="#1F1108"/>
      <stop offset="100%" stop-color="#0F0804"/>
    </linearGradient>

    <linearGradient id="rimLight" x1="0" y1="0" x2="0" y2="1">
      <stop offset="0%" stop-color="#FFEFA3"/>
      <stop offset="100%" stop-color="#B8860B"/>
    </linearGradient>

    <filter id="neonGlow" x="-50%" y="-50%" width="200%" height="200%">
      <feGaussianBlur stdDeviation="6" result="g1"/>
      <feGaussianBlur stdDeviation="15" result="g2"/>
      <feGaussianBlur stdDeviation="30" result="g3"/>
      <feMerge>
        <feMergeNode in="g3"/>
        <feMergeNode in="g2"/>
        <feMergeNode in="g1"/>
        <feMergeNode in="SourceGraphic"/>
      </feMerge>
    </filter>

    <filter id="softShadow" x="-20%" y="-10%" width="140%" height="140%">
      <feDropShadow dx="0" dy="35" stdDeviation="25" flood-color="#000000" flood-opacity="0.8"/>
    </filter>

    <filter id="innerGlow">
      <feGaussianBlur in="SourceAlpha" stdDeviation="15" result="blur"/>
      <feFlood flood-color="#000000" flood-opacity="0.7"/>
      <feComposite in2="blur" operator="in" result="glow"/>
      <feComposite in="SourceGraphic" in2="glow" operator="over"/>
    </filter>

    <clipPath id="bellClip">
      <path d="M512 330 C462 332 360 360 312 410 C300 500 280 620 272 700 C262 760 235 800 222 828 Q218 848 242 858 L782 858 Q806 848 802 828 C789 800 762 760 752 700 C744 620 724 500 712 410 C664 360 562 332 512 330 Z"/>
    </clipPath>
  </defs>

  <rect width="1024" height="1024" fill="#08080A"/>
  <rect width="1024" height="1024" fill="url(#bgGlow)"/>

  <g stroke="#00E5FF" fill="none" stroke-linecap="round" filter="url(#neonGlow)">
    <path d="M420 400 Q200 600 420 800" stroke-width="8" opacity="0.85"/>
    <path d="M370 420 Q100 600 370 780" stroke-width="5" opacity="0.6" stroke-dasharray="15 20"/>
    <path d="M320 440 Q 20 600 320 760" stroke-width="3" opacity="0.3" stroke-dasharray="5 15"/>
    <path d="M604 400 Q824 600 604 800" stroke-width="8" opacity="0.85"/>
    <path d="M654 420 Q924 600 654 780" stroke-width="5" opacity="0.6" stroke-dasharray="15 20"/>
    <path d="M704 440 Q1004 600 704 760" stroke-width="3" opacity="0.3" stroke-dasharray="5 15"/>
  </g>

  <g fill="#00E5FF" filter="url(#neonGlow)" opacity="0.7">
    <circle cx="280" cy="500" r="4"/>
    <circle cx="210" cy="680" r="3"/>
    <circle cx="340" cy="800" r="5"/>
    <circle cx="744" cy="500" r="4"/>
    <circle cx="814" cy="680" r="3"/>
    <circle cx="684" cy="800" r="5"/>
  </g>

  <g filter="url(#softShadow)">
    <rect x="262" y="190" width="500" height="55" rx="8" fill="url(#woodBeam)"/>
    <rect x="262" y="190" width="500" height="4" fill="#7A5618" opacity="0.5"/>
    <g fill="#1A1105" stroke="#3A2508" stroke-width="2">
      <rect x="320" y="188" width="30" height="59" rx="3"/>
      <rect x="674" y="188" width="30" height="59" rx="3"/>
    </g>
    <g fill="#D4A017">
      <circle cx="335" cy="205" r="3"/><circle cx="335" cy="230" r="3"/>
      <circle cx="689" cy="205" r="3"/><circle cx="689" cy="230" r="3"/>
    </g>
  </g>

  <g filter="url(#softShadow)">
    <path d="M460 245 C440 280, 460 320, 512 340 C564 320, 584 280, 564 245 C564 210, 524 190, 512 210 C500 190, 460 210, 460 245 Z" fill="url(#bronzeBody)"/>
    <circle cx="512" cy="265" r="28" fill="#0B0B0D" stroke="url(#bronzeBody)" stroke-width="14"/>
    <circle cx="512" cy="265" r="28" fill="none" stroke="#2B1D0A" stroke-width="18" opacity="0.6"/>
  </g>

  <g filter="url(#softShadow)">
    <path d="M512 330 C462 332 360 360 312 410 C300 500 280 620 272 700 C262 760 235 800 222 828 Q218 848 242 858 L782 858 Q806 848 802 828 C789 800 762 760 752 700 C744 620 724 500 712 410 C664 360 562 332 512 330 Z" fill="url(#bronzeBody)" filter="url(#innerGlow)"/>
  </g>

  <g clip-path="url(#bellClip)">
    <g stroke="#2B1D0A" stroke-width="8" fill="none" opacity="0.8">
      <path d="M200 480 Q512 550 824 480"/>
      <path d="M180 720 Q512 790 844 720"/>
      <path d="M410 330 L360 850"/>
      <path d="M614 330 L664 850"/>
      <path d="M512 330 L512 850"/>
    </g>
    
    <g stroke="#FFEFA3" stroke-width="2" fill="none" opacity="0.3">
      <path d="M200 484 Q512 554 824 484"/>
      <path d="M180 724 Q512 794 844 724"/>
      <path d="M414 330 L364 850"/>
      <path d="M618 330 L668 850"/>
      <path d="M516 330 L516 850"/>
    </g>

    <g stroke="#FFDF6A" stroke-linecap="round" fill="none" opacity="0.9">
      <path d="M 330 380 Q 512 410 694 380" stroke-width="8" stroke-dasharray="0 32"/>
      <path d="M 320 415 Q 512 450 704 415" stroke-width="10" stroke-dasharray="0 35"/>
      <path d="M 310 450 Q 512 490 714 450" stroke-width="12" stroke-dasharray="0 38"/>
      <path d="M 285 530 Q 512 580 739 530" stroke-width="14" stroke-dasharray="0 42"/>
      <path d="M 275 570 Q 512 625 749 570" stroke-width="14" stroke-dasharray="0 45"/>
      <path d="M 265 615 Q 512 675 759 615" stroke-width="14" stroke-dasharray="0 48"/>
      <path d="M 255 660 Q 512 725 769 660" stroke-width="14" stroke-dasharray="0 52"/>
    </g>

    <g stroke="#1A1105" stroke-linecap="round" fill="none" opacity="0.8">
      <path d="M 330 384 Q 512 414 694 384" stroke-width="8" stroke-dasharray="0 32"/>
      <path d="M 320 419 Q 512 454 704 419" stroke-width="10" stroke-dasharray="0 35"/>
      <path d="M 310 454 Q 512 494 714 454" stroke-width="12" stroke-dasharray="0 38"/>
      <path d="M 285 534 Q 512 584 739 534" stroke-width="14" stroke-dasharray="0 42"/>
      <path d="M 275 574 Q 512 629 749 574" stroke-width="14" stroke-dasharray="0 45"/>
      <path d="M 265 619 Q 512 679 759 619" stroke-width="14" stroke-dasharray="0 48"/>
      <path d="M 255 664 Q 512 729 769 664" stroke-width="14" stroke-dasharray="0 52"/>
    </g>

    <circle cx="512" cy="650" r="35" fill="none" stroke="#FFDF6A" stroke-width="4" opacity="0.6"/>
    <circle cx="512" cy="650" r="25" fill="#3A2508" stroke="#FFEFA3" stroke-width="2"/>
    <circle cx="512" cy="650" r="10" fill="#FFDF6A"/>

    <path d="M335 430 C320 540 310 650 298 770" stroke="#FFEFA3" stroke-width="25" stroke-linecap="round" fill="none" opacity="0.15" filter="blur(5px)"/>
    <path d="M689 430 C704 540 714 650 726 770" stroke="#000000" stroke-width="35" stroke-linecap="round" fill="none" opacity="0.3" filter="blur(8px)"/>
  </g>

  <g>
    <ellipse cx="512" cy="858" rx="275" ry="35" fill="url(#bronzeBody)"/>
    <ellipse cx="512" cy="855" rx="272" ry="33" fill="none" stroke="url(#rimLight)" stroke-width="4" opacity="0.8"/>
    <ellipse cx="512" cy="858" rx="255" ry="28" fill="#1A1105"/>
    <ellipse cx="512" cy="860" rx="245" ry="24" fill="#050301"/>
    
    <path d="M512 800 L512 860" stroke="#111" stroke-width="6"/>
    <ellipse cx="512" cy="860" rx="22" ry="12" fill="#2B1D0A"/>
    <ellipse cx="512" cy="862" rx="18" ry="8" fill="#050301"/>
  </g>

  <path d="M 400 350 L 480 858" stroke="#FFFFFF" stroke-width="40" fill="none" opacity="0.03" transform="skewX(-15)" filter="blur(10px)"/>
</svg>
